<?xml version="1.0" encoding="utf-8"?>
<!-- Generator: Adobe Illustrator 22.1.0, SVG Export Plug-In . SVG Version: 6.00 Build 0)  -->
<svg version="1.1" id="Layer" xmlns="http://www.w3.org/2000/svg" xmlns:xlink="http://www.w3.org/1999/xlink" x="0px" y="0px"
	 viewBox="0 0 512 512" style="enable-background:new 0 0 512 512;" xml:space="preserve">
<style type="text/css">
	.st0{fill:#537CAF;}
</style>
<g>
	<path class="st0" d="M251.3,124.7l-56-56c-6.2-6.2-16.4-6.2-22.6,0l-56,56c-6.2,6.2-6.2,16.4,0,22.6c6.2,6.2,16.4,6.2,22.6,0
		l28.7-28.7V432c0,8.8,7.2,16,16,16s16-7.2,16-16V118.6l28.7,28.7c3.1,3.1,7.2,4.7,11.3,4.7s8.2-1.6,11.3-4.7
		C257.6,141.1,257.6,130.9,251.3,124.7L251.3,124.7z"/>
	<path class="st0" d="M372.7,364.7L344,393.4V80c0-8.8-7.2-16-16-16s-16,7.2-16,16v313.4l-28.7-28.7c-6.2-6.2-16.4-6.2-22.6,0
		c-6.2,6.2-6.2,16.4,0,22.6l56,56c3.1,3.1,7.2,4.7,11.3,4.7s8.2-1.6,11.3-4.7l56-56c6.2-6.2,6.2-16.4,0-22.6
		C389.1,358.4,378.9,358.4,372.7,364.7L372.7,364.7z"/>
</g>
</svg>
